<svg xmlns="http://www.w3.org/2000/svg" id="content2" width="1392" height="800" stroke="#ffffff">
    <g>
        <line x1="800" x2="1500" y1="0" y2="0" stroke-opacity="0.4"/>
        <line id="l1" x1="800" x2="1500" y1="0" y2="40" stroke-opacity="0.4"/>
        <line x1="800" x2="1500" y1="0" y2="80" stroke-opacity="0.4"/>
        <line x1="800" x2="1500" y1="0" y2="120" stroke-opacity="0.4"/>
        <line x1="800" x2="1500" y1="0" y2="160" stroke-opacity="0.4"/>
        <line x1="800" x2="1500" y1="0" y2="200" stroke-opacity="0.4"/>
        <line x1="800" x2="1500" y1="0" y2="240" stroke-opacity="0.4"/>
        <line x1="800" x2="1500" y1="0" y2="280" stroke-opacity="0.4"/>
        <line x1="800" x2="1500" y1="0" y2="320" stroke-opacity="0.4"/>
<!--<line x1="0" x2="500" y1="-40" y2="0" stroke-opacity="0.2"/> <line x1="0" x2="500" y1="-20" y2="0" stroke-opacity="0.2"/> <line x1="0" x2="500" y1="20" y2="0" stroke-opacity="0.2"/> <line x1="0" x2="500" y1="60" y2="0" stroke-opacity="0.2"/> <line x1="0" x2="500" y1="100" y2="0" stroke-opacity="0.2"/> <line x1="0" x2="500" y1="140" y2="0" stroke-opacity="0.2"/> <line x1="0" x2="500" y1="180" y2="0" stroke-opacity="0.2"/> <line x1="0" x2="500" y1="220" y2="0" stroke-opacity="0.2"/> <line x1="0" x2="500" y1="260" y2="0" stroke-opacity="0.2"/> <line x1="0" x2="500" y1="300" y2="0" stroke-opacity="0.2"/>-->
        <line x1="0" x2="1500" y1="500" y2="300" stroke-dasharray="15" stroke-opacity="0.2"/>
        <line x1="0" x2="1500" y1="500" y2="260" stroke-dasharray="15" stroke-opacity="0.2"/>
        <line x1="0" x2="1500" y1="500" y2="220" stroke-dasharray="15" stroke-opacity="0.2"/>
        <line x1="0" x2="1500" y1="500" y2="180" stroke-dasharray="15" stroke-opacity="0.2"/>
        <line x1="0" x2="1500" y1="500" y2="140" stroke-dasharray="15" stroke-opacity="0.2"/>
        <line x1="0" x2="1500" y1="500" y2="100" stroke-dasharray="15" stroke-opacity="0.2"/>
        <line x1="0" x2="1500" y1="500" y2="60" stroke-dasharray="15" stroke-opacity="0.2"/>
        <line x1="0" x2="1500" y1="500" y2="20" stroke-dasharray="15" stroke-opacity="0.2"/>
        <line x1="0" x2="1500" y1="500" y2="-20" stroke-dasharray="15" stroke-opacity="0.2"/>
    </g>
<!--<animate xlink:href="#l1" attributeName="stroke-opacity" from="0" to="40" dur="2s" begin="0s" repeatCount="indefinite" fill="freeze" id="rect-anim"/>-->
</svg>
